HIERARCHY
ROOT Hips
{
    OFFSET 0.0 0.0 0.0
    CHANNELS 6 Xposition Yposition Zposition Zrotation Xrotation Yrotation
    JOINT LeftUpLeg
    {
        OFFSET 13.736480757264175 0.0 0.0
        CHANNELS 3 Zrotation Xrotation Yrotation
        JOINT LeftLeg
        {
            OFFSET 0.0 0.0 -72.15411673637055
            CHANNELS 3 Zrotation Xrotation Yrotation
            JOINT LeftFoot
            {
                OFFSET 0.0 0.0 -54.778427755229785
                CHANNELS 3 Zrotation Xrotation Yrotation
                JOINT LeftToeBase
                {
                    OFFSET 0.0 -13.190517394939368 0.0
                    CHANNELS 3 Zrotation Xrotation Yrotation
                    End Site
                    {
                        OFFSET 0 0 0
                    }
                }
            }
        }
    }
    JOINT RightUpLeg
    {
        OFFSET -13.736480757264175 0.0 0.0
        CHANNELS 3 Zrotation Xrotation Yrotation
        JOINT RightLeg
        {
            OFFSET 0.0 0.0 -72.15411673637055
            CHANNELS 3 Zrotation Xrotation Yrotation
            JOINT RightFoot
            {
                OFFSET 0.0 0.0 -54.778427755229785
                CHANNELS 3 Zrotation Xrotation Yrotation
                JOINT RightToeBase
                {
                    OFFSET 0.0 -13.190517394939368 0.0
                    CHANNELS 3 Zrotation Xrotation Yrotation
                    End Site
                    {
                        OFFSET 0 0 0
                    }
                }
            }
        }
    }
    JOINT Spine
    {
        OFFSET 0.0 0.0 11.385258396416896
        CHANNELS 3 Zrotation Xrotation Yrotation
        JOINT Spine1
        {
            OFFSET 0.0 0.0 10.612389466671523
            CHANNELS 3 Zrotation Xrotation Yrotation
            JOINT Spine2
            {
                OFFSET 0.0 0.0 10.612389466671527
                CHANNELS 3 Zrotation Xrotation Yrotation
                JOINT Spine3
                {
                    OFFSET 0.0 0.0 10.61238946667152
                    CHANNELS 3 Zrotation Xrotation Yrotation
                    JOINT Spine4
                    {
                        OFFSET 0.0 0.0 10.612389466671528
                        CHANNELS 3 Zrotation Xrotation Yrotation
                        JOINT RightShoulder
                        {
                            OFFSET -22.96558481523927 0.0 0.0
                            CHANNELS 3 Zrotation Xrotation Yrotation
                            JOINT RightArm
                            {
                                OFFSET -37.01130762853134 0.0 0.0
                                CHANNELS 3 Zrotation Xrotation Yrotation
                                JOINT RightForeArm
                                {
                                    OFFSET -34.399651216615766 0.0 0.0
                                    CHANNELS 3 Zrotation Xrotation Yrotation
                                    JOINT RightHand
                                    {
                                        OFFSET -11.595880312299077 0.0 0.0
                                        CHANNELS 3 Zrotation Xrotation Yrotation
                                        End Site
                                        {
                                            OFFSET 0 0 0
                                        }
                                    }
                                }
                            }
                        }
                        JOINT LeftShoulder
                        {
                            OFFSET 22.96558481523927 0.0 0.0
                            CHANNELS 3 Zrotation Xrotation Yrotation
                            JOINT LeftArm
                            {
                                OFFSET 37.01130762853134 0.0 0.0
                                CHANNELS 3 Zrotation Xrotation Yrotation
                                JOINT LeftForeArm
                                {
                                    OFFSET 34.399651216615766 0.0 0.0
                                    CHANNELS 3 Zrotation Xrotation Yrotation
                                    JOINT LeftHand
                                    {
                                        OFFSET 11.595880312299077 0.0 0.0
                                        CHANNELS 3 Zrotation Xrotation Yrotation
                                        End Site
                                        {
                                            OFFSET 0 0 0
                                        }
                                    }
                                }
                            }
                        }
                        JOINT Neck
                        {
                            OFFSET 0.0 0.0 10.612389409632936
                            CHANNELS 3 Zrotation Xrotation Yrotation
                            JOINT Head
                            {
                                OFFSET 0.0 0.0 25.403284915479528
                                CHANNELS 3 Zrotation Xrotation Yrotation
                                End Site
                                {
                                    OFFSET 0 0 0
                                }
                            }
                        }
                    }
                }
            }
        }
    }
}
MOTION
Frames: 10
Frame Time: 0.03333333333333333
55.69064140319825 19.231780296564104 537.4287448883057 14.517440301978349 -53.33395704084974 12.849796206031476 8.952509301104158 -33.185000012675005 6.340878775445441 22.466017103443676 -19.189144097951772 15.732323136765238 -99.52400131026413 3.1805546814635168e-15 41.25987956210354 0.0 0.0 0.0 -2.926291719623039 -36.594530778529716 2.672288084818544 -14.966969294375206 -14.26683508239826 -11.23842741010061 110.21135505843357 0.0 -52.24342653709321 0.0 0.0 0.0 5.462912089676101 -38.49507931671496 7.1575437045307755 0.0 0.0 0.0 0.0 0.0 0.0 0.0 0.0 0.0 0.0 0.0 0.0 143.07051121305895 12.49729981754372 -163.873229533487 126.54921759858172 -1.0727570298437273e-15 2.130587219740565e-15 -2.559595656224423e-16 -23.98458036691928 6.448664501626064e-15 0.0 0.0 0.0 159.15968352207537 -2.1334923818246105 -175.22268829710148 -47.71126715621646 -4.713142286662392e-15 -5.561872666565335e-15 -180.0 -0.3117505876452014 -180.0 3.1805546814635168e-15 0.0 0.0 -9.053341222659721 1.0049428362073261e-14 -9.990458642179114e-16 0.0 0.0 0.0
55.69064140319825 19.231780296564104 537.4287448883057 14.517440301978349 -53.33395704084974 12.849796206031476 8.952509301104158 -33.185000012675005 6.340878775445441 22.466017103443676 -19.189144097951772 15.732323136765238 -99.52400131026413 3.1805546814635168e-15 41.25987956210354 0.0 0.0 0.0 -2.926291719623039 -36.594530778529716 2.672288084818544 -14.966969294375206 -14.26683508239826 -11.23842741010061 110.21135505843357 0.0 -52.24342653709321 0.0 0.0 0.0 5.462912089676101 -38.49507931671496 7.1575437045307755 0.0 0.0 0.0 0.0 0.0 0.0 0.0 0.0 0.0 0.0 0.0 0.0 143.07051121305895 12.49729981754372 -163.873229533487 126.54921759858172 -1.0727570298437273e-15 2.130587219740565e-15 -2.559595656224423e-16 -23.98458036691928 6.448664501626064e-15 0.0 0.0 0.0 159.15968352207537 -2.1334923818246105 -175.22268829710148 -47.71126715621646 -4.713142286662392e-15 -5.561872666565335e-15 -180.0 -0.3117505876452014 -180.0 3.1805546814635168e-15 0.0 0.0 -9.053341222659721 1.0049428362073261e-14 -9.990458642179114e-16 0.0 0.0 0.0
55.69064140319825 19.231780296564104 537.4287448883057 14.517440301978349 -53.33395704084974 12.849796206031476 8.952509301104158 -33.185000012675005 6.340878775445441 22.466017103443676 -19.189144097951772 15.732323136765238 -99.52400131026413 3.1805546814635168e-15 41.25987956210354 0.0 0.0 0.0 -2.926291719623039 -36.594530778529716 2.672288084818544 -14.966969294375206 -14.26683508239826 -11.23842741010061 110.21135505843357 0.0 -52.24342653709321 0.0 0.0 0.0 5.462912089676101 -38.49507931671496 7.1575437045307755 0.0 0.0 0.0 0.0 0.0 0.0 0.0 0.0 0.0 0.0 0.0 0.0 143.07051121305895 12.49729981754372 -163.873229533487 126.54921759858172 -1.0727570298437273e-15 2.130587219740565e-15 -2.559595656224423e-16 -23.98458036691928 6.448664501626064e-15 0.0 0.0 0.0 159.15968352207537 -2.1334923818246105 -175.22268829710148 -47.71126715621646 -4.713142286662392e-15 -5.561872666565335e-15 -180.0 -0.3117505876452014 -180.0 3.1805546814635168e-15 0.0 0.0 -9.053341222659721 1.0049428362073261e-14 -9.990458642179114e-16 0.0 0.0 0.0
55.69332304000855 19.232081794738768 537.4337957382202 14.563240331376186 -53.412609236306025 12.880875819807658 8.859538876885484 -33.111171627090144 6.282303208168387 22.360667971189994 -19.122797812424594 15.807548392549045 -100.9693898818799 -3.1805546814635168e-15 41.04778338341676 0.0 0.0 0.0 -2.9217781984538482 -36.5099781014045 2.6909968485721447 -14.956062761512962 -14.252121812889856 -11.29033930585037 111.94772906640182 3.1805546814635168e-15 -53.261902811142086 6.3611093629270335e-15 0.0 0.0 5.403882821944072 -38.40572498277393 7.127739698752511 -1.5902773407317584e-15 0.0 0.0 -1.5902773407317584e-15 0.0 0.0 -1.5902773407317584e-15 0.0 0.0 -1.5902773407317584e-15 0.0 0.0 143.17639233315506 12.627903663187784 -163.99095291918755 126.67828195907254 -3.567855572111536e-16 7.105980377658983e-16 -2.4148788045733143e-15 -23.741206501023576 -3.757659202146593e-15 -3.1805546814635164e-15 -8.827812596100317e-32 3.1805546814635164e-15 159.24041185885633 -2.062720716734963 -175.23086111851072 -47.67324069488425 1.0306218529193977e-14 8.030604940945114e-15 -180.0 -0.5326156526794064 -180.0 0.0 0.0 0.0 -9.107614491697811 -1.6991975317907082e-14 -1.3533548859464987e-15 0.0 0.0 0.0
55.69368009567261 19.232299143075945 537.4348371505737 14.597893362557649 -53.442984255553 12.894187718249812 8.81005740049307 -33.076197745721124 6.26853519040368 22.351289133808823 -19.128561273968838 15.806548680877198 -101.1140077122784 -9.54166404439055e-15 41.07828159378506 0.0 0.0 0.0 -2.9169530932199437 -36.476882439844644 2.7178509093104513 -14.952487918309068 -14.244770042145488 -11.296070151233202 113.11001293471341 6.3611093629270335e-15 -52.46560709977606 6.3611093629270335e-15 0.0 0.0 5.377527762227863 -38.36653376098513 7.130742922686343 7.951386703658794e-16 0.0 0.0 7.951386703658794e-16 0.0 0.0 7.951386703658794e-16 0.0 0.0 7.951386703658794e-16 0.0 0.0 143.3746050479212 12.621675260412305 -164.1229230501525 126.85241856660963 8.888293273553219e-15 1.0669260599602492e-14 -1.6974956339351747e-15 -23.472351446486257 -3.526523310702845e-16 0.0 0.0 0.0 159.20912947719563 -2.01733870987758 -175.2269820954308 -47.75439032109205 1.281450915175211e-14 -4.762210063104625e-15 180.0 -0.6890674408390862 180.0 0.0 0.0 0.0 -9.20128591073602 7.657035126166573e-15 -9.79260911802157e-16 1.987846675914698e-16 0.0 0.0
55.69401669502258 19.232580417394637 537.4360273361207 14.646294821477868 -53.484947770759156 12.913897507685737 8.746066772726355 -33.02722817844801 6.251855136062317 22.345386726065325 -19.141183519382704 15.799897306179206 -101.24108513339884 6.3611093629270335e-15 41.08234888669475 0.0 0.0 0.0 -2.912230483459167 -36.43148306134817 2.7534798836568517 -14.917704042849227 -14.208080819321241 -11.355589215289859 115.15064456690203 -3.1805546814635168e-15 -51.5666551617589 -6.3611093629270335e-15 0.0 0.0 5.3433351045240265 -38.31334458946427 7.134475744676293 -7.951386703658792e-16 0.0 0.0 -7.951386703658792e-16 0.0 0.0 -7.951386703658792e-16 0.0 0.0 -7.951386703658792e-16 0.0 0.0 143.59074015610352 12.60610727601494 -164.25854567885298 127.02449145216842 -1.1032126649470293e-14 -6.385865360593696e-15 2.391652252972102e-15 -23.222435934599726 3.73842549024664e-15 0.0 0.0 0.0 159.16647855645442 -1.9760689962998916 -175.22460278338292 -47.87004292543917 -1.381197317991592e-15 2.8667230222973562e-15 -180.0 -0.8292098039387075 -180.0 -6.361109362927035e-15 0.0 0.0 -9.302115358872173 -2.1635887196974077e-14 -9.624229296063756e-16 0.0 0.0 0.0
55.69434585571289 19.232906323671344 537.4373737335205 14.70797310882668 -53.54056294334289 12.94036432940296 8.66759460981849 -32.96243750851695 6.230939761143367 22.341660262511986 -19.15918523046163 15.787089028096608 -101.34129298514173 -9.54166404439055e-15 41.06447839837537 0.0 0.0 0.0 -2.9063061191486663 -36.37036705317615 2.7966814390061616 -14.868359383085696 -14.157463084315015 -11.435616223790799 117.73772580689283 -3.1805546814635168e-15 -50.61239895442282 0.0 0.0 0.0 5.301136346257007 -38.244000593816764 7.137134998585991 0.0 0.0 0.0 0.0 0.0 0.0 0.0 0.0 0.0 0.0 0.0 0.0 143.81330207607394 12.588383177532972 -164.3922693052091 127.19461330760068 3.5358010441822716e-16 -7.121984378463729e-16 6.460199888131143e-15 -23.03756985466765 7.808408424532406e-15 3.1805546814635168e-15 0.0 0.0 159.14642358551086 -1.9699274577169625 -175.23268508402907 -47.99971202324575 -1.4051477482879757e-14 -9.737625178748735e-15 -180.0 -0.8497172156083683 -180.0 3.1805546814635168e-15 0.0 0.0 -9.401298644453105 9.011648466464856e-15 -1.6524713481307944e-15 1.9878466759146985e-16 0.0 0.0
55.69470756053924 19.233423775434495 537.4389507293702 14.779769619562868 -53.61032023958963 12.97215843756605 8.572277255985975 -32.88209187910995 6.202557724365825 22.338873096378325 -19.182504941259314 15.767856420634255 -101.41428962440956 3.1805546814635168e-15 41.0366907177373 0.0 0.0 0.0 -2.902265565717876 -36.29500737343293 2.844491825565858 -14.80482263921491 -14.093381348413143 -11.531370303603799 120.67435074307058 0.0 -49.72041215402997 0.0 0.0 0.0 5.248669666530161 -38.15723712355723 7.1364155984591955 -7.951386703658792e-16 0.0 0.0 -7.951386703658792e-16 0.0 0.0 -7.951386703658792e-16 0.0 0.0 -7.951386703658792e-16 0.0 0.0 144.0230473734768 12.57700280399435 -164.5060789372183 127.34391908429654 -4.99596450378654e-15 -4.246531881955881e-15 0.0 -22.834198941540166 0.0 0.0 0.0 0.0 159.14155274631077 -1.9875659214085106 -175.24651591770987 -48.125577956497025 1.3340993552298213e-14 5.957319744375819e-15 180.0 -0.7882497934776681 -180.0 0.0 0.0 0.0 -9.492039119999426 1.662329165653101e-14 -1.412434127345424e-15 1.987846675914698e-16 3.4483642953516864e-34 1.987846675914698e-16
55.69515759944915 19.234045600891115 537.4406913757324 14.856330358932455 -53.69555692549494 13.00641328701307 8.467229924817895 -32.78625659450109 6.168718948487462 22.337080166222577 -19.209270466600515 15.739812329467135 -101.43625563489799 0.0 40.783536899195425 6.3611093629270335e-15 0.0 0.0 -2.8980763088025427 -36.20440434272758 2.8944572868868903 -14.74195159778364 -14.029364414496904 -11.617764001143017 123.2815712368189 3.1805546814635168e-15 -48.81387952046582 -1.7655625192200634e-31 6.3611093629270335e-15 3.1805546814635168e-15 5.190805197104169 -38.052409334107054 7.131876110468209 0.0 0.0 0.0 0.0 0.0 0.0 0.0 0.0 0.0 0.0 0.0 0.0 144.21369581750335 12.5703327977327 -164.5999875850511 127.46888557278345 -1.1408682926447058e-14 -5.629991402503849e-15 5.068750533155932e-15 -22.645409999403025 1.0149252957973944e-15 3.1805546814635168e-15 0.0 0.0 159.15392007303288 -2.028241971094015 -175.26779485099854 -48.24798650931352 3.3207318471424175e-16 -6.821122505714397e-15 -180.0 -0.6584886051338407 -180.0 3.1805546814635168e-15 0.0 0.0 -9.572586488384466 -6.182656820230707e-15 8.786792640351821e-16 0.0 0.0 0.0
55.69550628662109 19.234402656555176 537.4425436019897 14.939084894572256 -53.79487246672588 13.043707122016215 8.361055812712559 -32.67649864812239 6.134801349996631 22.34016775583169 -19.238769795247855 15.708442175566555 -101.41193961780984 3.1805546814635168e-15 39.411932852261764 -6.3611093629270335e-15 0.0 0.0 -2.8909969388409333 -36.09888321664386 2.9492463786166576 -14.701964142188059 -13.98502079487533 -11.652326614115772 124.8256014834577 6.3611093629270335e-15 -47.83151148562727 0.0 0.0 3.1805546814635168e-15 5.132376766304218 -37.9299224130939 7.128244031042391 7.951386703658792e-16 0.0 0.0 7.951386703658792e-16 0.0 0.0 7.951386703658792e-16 0.0 0.0 7.951386703658792e-16 0.0 0.0 144.38578367216112 12.590204786952112 -164.68230199831783 127.58875411476578 -1.3170207896717642e-14 -2.051002411868063e-15 3.368119527811564e-15 -22.04462753382535 6.560574891852961e-16 0.0 0.0 0.0 159.2255283967599 -2.0985341087080305 -175.297321699557 -48.26168176485664 1.0612702650045397e-14 4.754148578178699e-15 180.0 -0.4367405661263039 180.0 0.0 0.0 0.0 -9.64775657219778 -8.146691850922626e-15 -8.904220360321735e-17 0.0 0.0 0.0
